<?xml version="1.0" encoding="utf-8"?>
<!-- Generator: Adobe Illustrator 22.0.1, SVG Export Plug-In . SVG Version: 6.00 Build 0)  -->
<svg version="1.1" id="Layer_1" xmlns="http://www.w3.org/2000/svg" xmlns:xlink="http://www.w3.org/1999/xlink" x="0px" y="0px"
	 viewBox="0 0 2409.4 2834.6" style="enable-background:new 0 0 2409.4 2834.6;" xml:space="preserve">
<style type="text/css">
	.st0{fill:none;stroke:#C6BA57;stroke-width:29.5054;stroke-miterlimit:10;}
	.st1{fill:none;stroke:#545454;stroke-width:29.5054;stroke-miterlimit:10;}
	.st2{fill:#545454;}
	.st3{fill:#FFFFFF;}
	.st4{fill:#C6BA57;}
</style>
<g>
	<path class="st0" d="M836.2,1082.9l360.1,280.7c30.2,23.5,68.9,31.9,103.1,22.2l437.4-123.6c80.6-22.8,93.1-126.9,21.9-182.4
		L989.4,480c-69.9-54.5-166.3-19.6-171.5,62.2l-28.2,442.6C787.3,1021.4,804.9,1058.5,836.2,1082.9z"/>
	<ellipse class="st1" cx="783.3" cy="1303" rx="86.8" ry="86.7"/>
	<ellipse class="st1" cx="1036.6" cy="1500.2" rx="86.8" ry="86.7"/>
	<path class="st0" d="M1866,1378.7c87,40.7,124.3-16.1,125-47.9c0.8-33.3-20.6-66.2-51.8-77.6c-47.5-17.4-122.3-11.8-212.6,12
		l-105.8,29"/>
	<path class="st2" d="M1651.1,1492L1651.1,1492c-17.2-52.7,16.1-111.2,74.1-130.1l86.2-28.1c57.9-18.9,119.4,8.7,136.6,61.4l0,0
		c17.2,52.7-16.1,111.2-74.1,130.1l-86.2,28.1C1729.8,1572.3,1668.3,1544.6,1651.1,1492z"/>
	<path class="st3" d="M1949.5,1400.2c-0.5-1.7-0.9-3.4-1.5-5.1l0,0c-0.6-1.7-1.2-3.4-1.8-5l-134.8,44l3.3,10.2L1949.5,1400.2z"/>
	
		<rect x="1810.9" y="1337.6" transform="matrix(0.9506 -0.3103 0.3103 0.9506 -356.6755 634.2695)" class="st3" width="9.1" height="201.5"/>
	<path class="st3" d="M1844.3,1428.9L1844.3,1428.9c-2.4-7.4,2.3-15.5,10.3-18.2l45.8-14.9c8.1-2.6,16.7,1.2,19.1,8.6l0,0
		c2.4,7.4-2.3,15.5-10.3,18.2l-45.8,14.9C1855.3,1440.1,1846.7,1436.3,1844.3,1428.9z"/>
</g>
<g>
	<path class="st2" d="M404.3,1772.1h76.8c8.4,0,16.8,0.9,25.2,2.8c8.4,1.9,15.9,5,22.5,9.4c6.6,4.4,12,10.2,16.1,17.3
		c4.1,7.1,6.1,16,6.1,26.7c0,12.4-3.6,22.8-10.7,31.2c-7.1,8.4-16.6,14.2-28.3,17.3v0.6c7.1,0.8,13.7,2.7,19.8,5.5
		c6.1,2.8,11.3,6.6,15.7,11.2c4.4,4.6,7.8,10.1,10.2,16.4c2.4,6.3,3.6,13.3,3.6,21.1c0,10.7-2.2,20-6.6,28
		c-4.4,8-10.4,14.5-17.9,19.7c-7.6,5.1-16.4,9-26.6,11.6c-10.2,2.6-21,3.9-32.6,3.9h-73.3V1772.1z M435.5,1866.2h40.6
		c5.9,0,11.5-0.7,16.8-2s10-3.5,14-6.3c4-2.8,7.1-6.4,9.4-10.7c2.3-4.3,3.5-9.5,3.5-15.6c0-12-4.4-20.5-13.2-25.6
		c-8.8-5.1-20.7-7.7-35.6-7.7h-35.6V1866.2z M435.5,1968.4h39c6.5,0,13.1-0.6,19.7-1.7c6.6-1.2,12.6-3.2,17.9-6.1
		c5.4-2.9,9.7-6.9,12.9-11.8c3.3-4.9,4.9-11.2,4.9-18.7c0-13.2-4.5-22.8-13.5-28.6c-9-5.9-22-8.8-39-8.8h-41.9V1968.4z"/>
	<path class="st2" d="M790.8,1994.9c-0.4-3.8-0.7-8-0.9-12.7c-0.2-4.7-0.3-8.7-0.3-11.8H789c-3.8,8-10.1,14.7-19,20.3
		c-8.9,5.6-18.8,8.3-29.7,8.3c-9.7,0-18-1.6-25-4.7c-7-3.1-12.8-7.5-17.3-13.1c-4.5-5.6-7.9-12-10.1-19.4
		c-2.2-7.3-3.3-15.2-3.3-23.6v-92.5H714v82.5c0,6.1,0.5,11.9,1.4,17.5c0.9,5.6,2.7,10.4,5.2,14.6c2.5,4.2,6,7.6,10.4,10.1
		s10.1,3.8,17,3.8c12,0,21.6-4.5,29-13.4c7.3-8.9,11-20.8,11-35.7v-79.3h29.6v117.1c0,4,0.1,9.1,0.3,15.4c0.2,6.3,0.5,11.9,0.9,16.7
		H790.8z"/>
	<path class="st2" d="M984.4,1791.9c0,5.5-1.9,10-5.8,13.5c-3.8,3.6-8.5,5.3-13.9,5.3s-10-1.8-13.7-5.5c-3.7-3.7-5.6-8.1-5.6-13.4
		c0-5.5,1.9-10,5.6-13.7c3.7-3.7,8.3-5.5,13.7-5.5s10,1.8,13.9,5.5C982.5,1781.9,984.4,1786.4,984.4,1791.9z M979.7,1994.9h-29.6
		v-149.2h29.6V1994.9z"/>
	<path class="st2" d="M1142.4,1994.9h-29.6V1757h29.6V1994.9z"/>
	<path class="st2" d="M1393.9,1971.3c-5.7,9-13.4,15.9-23.1,20.6c-9.8,4.7-20,7.1-30.7,7.1c-11.5,0-21.9-2-31.2-6.1
		c-9.2-4.1-17.1-9.7-23.6-16.8c-6.5-7.1-11.5-15.5-15.1-25.2c-3.6-9.6-5.4-19.9-5.4-30.8c0-10.9,1.8-21.1,5.4-30.7
		c3.6-9.5,8.7-17.9,15.3-25c6.6-7.1,14.5-12.7,23.8-16.7c9.2-4,19.4-6,30.5-6c12.2,0,22.8,2.6,31.8,7.7c9,5.1,16.2,11.4,21.4,18.7
		h0.6V1757h29.6v237.9h-28.6v-23.6H1393.9z M1295.7,1920.1c0,6.9,1,13.6,3.1,20.1c2.1,6.5,5.2,12.2,9.4,17.3
		c4.2,5,9.3,9.1,15.4,12.1c6.1,3,13.2,4.6,21.4,4.6c7.6,0,14.4-1.5,20.6-4.4c6.2-2.9,11.5-6.8,15.9-11.8c4.4-4.9,7.8-10.6,10.2-17.1
		c2.4-6.5,3.6-13.3,3.6-20.4c0-7.1-1.2-13.9-3.6-20.4c-2.4-6.5-5.8-12.2-10.2-17.3c-4.4-5-9.7-9-15.9-11.9
		c-6.2-2.9-13.1-4.4-20.6-4.4c-8.2,0-15.3,1.5-21.4,4.4c-6.1,2.9-11.2,6.9-15.4,11.9c-4.2,5-7.3,10.8-9.4,17.3
		C1296.7,1906.5,1295.7,1913.2,1295.7,1920.1z"/>
	<path class="st2" d="M1590.3,1791.9c0,5.5-1.9,10-5.8,13.5c-3.9,3.6-8.5,5.3-13.9,5.3c-5.4,0-10-1.8-13.7-5.5s-5.6-8.1-5.6-13.4
		c0-5.5,1.9-10,5.6-13.7c3.7-3.7,8.3-5.5,13.7-5.5c5.4,0,10,1.8,13.9,5.5C1588.4,1781.9,1590.3,1786.4,1590.3,1791.9z
		 M1585.6,1994.9H1556v-149.2h29.6V1994.9z"/>
	<path class="st2" d="M1744.8,1845.7c0.4,3.8,0.7,8,0.9,12.7c0.2,4.7,0.3,8.7,0.3,11.8h0.9c1.9-4,4.5-7.7,7.7-11.2
		c3.2-3.5,7-6.5,11.2-9.1c4.2-2.6,8.8-4.7,13.9-6.1c5-1.5,10.3-2.2,15.7-2.2c9.7,0,17.9,1.6,24.9,4.9c6.9,3.3,12.7,7.6,17.3,13.1
		c4.6,5.5,8,11.9,10.2,19.2c2.2,7.3,3.3,15.2,3.3,23.6v92.5h-29.6v-82.8c0-6.1-0.5-11.9-1.4-17.3c-1-5.5-2.7-10.3-5.2-14.5
		c-2.5-4.2-6-7.6-10.4-10.1c-4.4-2.5-10.1-3.8-17-3.8c-11.7,0-21.4,4.5-28.8,13.4c-7.5,8.9-11.2,20.8-11.2,35.7v79.3h-29.6v-117.1
		c0-4-0.1-9.1-0.3-15.4c-0.2-6.3-0.5-11.8-0.9-16.7H1744.8z"/>
	<path class="st2" d="M1993.8,2020.4c6.5,7.3,14.6,13.2,24.4,17.6c9.8,4.4,19.8,6.6,30.1,6.6c9.9,0,18.1-1.4,24.9-4.2
		c6.7-2.8,12.1-6.7,16.2-11.6c4.1-4.9,7-10.8,8.8-17.5c1.8-6.7,2.7-14,2.7-21.7v-19.2h-0.6c-5.5,8.4-12.9,14.8-22.3,19.2
		c-9.4,4.4-19.5,6.6-30.2,6.6c-11.3,0-21.7-2-31-6c-9.3-4-17.3-9.4-23.8-16.4c-6.5-6.9-11.5-15-15.1-24.4
		c-3.6-9.3-5.4-19.4-5.4-30.1c0-10.7,1.8-20.8,5.4-30.2c3.6-9.4,8.6-17.7,15.1-24.7c6.5-7,14.4-12.6,23.6-16.7
		c9.2-4.1,19.5-6.1,30.8-6.1c10.7,0,20.9,2.3,30.7,6.9c9.8,4.6,17.5,11.6,23.1,21.1h0.6v-23.9h28.6v141.6c0,10.9-1.4,21.3-4.1,31.3
		c-2.7,10-7.3,18.8-13.9,26.4c-6.5,7.7-15,13.8-25.5,18.4c-10.5,4.6-23.5,6.9-39,6.9c-13,0-26.1-2.4-39.2-7.1
		c-13.1-4.7-24.4-11.4-33.8-20L1993.8,2020.4z M2002.6,1918.7c0,6.9,1.1,13.5,3.3,19.8c2.2,6.3,5.5,11.9,9.8,16.7
		c4.3,4.8,9.5,8.7,15.6,11.6c6.1,2.9,13.1,4.4,20.8,4.4c7.6,0,14.5-1.4,20.8-4.1c6.3-2.7,11.7-6.5,16.1-11.2s7.8-10.3,10.3-16.7
		c2.4-6.4,3.6-13.3,3.6-20.6c0-7.1-1.2-13.8-3.6-20.1c-2.4-6.3-5.9-11.9-10.4-16.7c-4.5-4.8-9.9-8.7-16.1-11.5
		c-6.2-2.8-13.1-4.2-20.7-4.2c-7.8,0-14.7,1.4-20.8,4.2c-6.1,2.8-11.3,6.6-15.6,11.3c-4.3,4.7-7.6,10.3-9.8,16.7
		C2003.7,1904.8,2002.6,1911.6,2002.6,1918.7z"/>
</g>
<g>
	<path class="st4" d="M517.6,2123.1c-4.4-6.1-10.4-11.1-17.9-14.9c-7.6-3.9-16.1-5.8-25.5-5.8c-5,0-10.1,0.7-15.3,2
		c-5.1,1.4-9.8,3.6-14,6.6c-4.2,3-7.6,6.8-10.2,11.3c-2.6,4.5-3.9,9.9-3.9,16.2c0,6.1,1.2,11.2,3.6,15.3c2.4,4.1,5.7,7.6,9.8,10.4
		c4.1,2.8,8.9,5.2,14.5,7.2c5.6,2,11.5,4,17.8,6.1c7.6,2.3,15.2,4.9,23,7.9c7.8,2.9,14.8,6.8,21.1,11.6c6.3,4.8,11.4,10.9,15.4,18.1
		c4,7.2,6,16.4,6,27.5c0,11.5-2.2,21.6-6.5,30.1c-4.3,8.5-10,15.5-17.2,21.1c-7.1,5.6-15.4,9.7-24.7,12.4
		c-9.3,2.7-18.9,4.1-28.8,4.1c-14.1,0-27.6-2.7-40.8-8.2c-13.1-5.5-24-13.5-32.6-24.2l24.2-20.5c5.2,7.8,12.3,14.1,21.1,18.9
		c8.8,4.8,18.4,7.2,28.6,7.2c5.2,0,10.5-0.7,15.7-2.2c5.2-1.5,10-3.8,14.3-6.9c4.3-3.2,7.8-7.1,10.5-11.8c2.7-4.7,4.1-10.4,4.1-17.2
		c0-6.7-1.4-12.3-4.3-16.8c-2.8-4.5-6.7-8.3-11.5-11.5c-4.8-3.1-10.4-5.8-16.8-8c-6.4-2.2-13.2-4.5-20.3-6.8
		c-7.1-2.1-14.2-4.7-21.1-7.7c-6.9-3-13.1-6.9-18.6-11.6c-5.5-4.7-9.9-10.5-13.2-17.5c-3.4-6.9-5-15.5-5-25.8
		c0-11.1,2.3-20.7,6.8-28.6c4.5-8,10.4-14.6,17.6-19.8c7.2-5.2,15.4-9.1,24.5-11.5c9.1-2.4,18.3-3.6,27.5-3.6
		c13,0,25.2,2.3,36.5,6.9c11.3,4.6,20.5,10.8,27.4,18.6L517.6,2123.1z"/>
	<path class="st4" d="M774,2179.7h-39.7v77.5c0,9,1.7,15.4,5,19.3c3.4,3.9,8.7,5.8,16.1,5.8c2.7,0,5.7-0.3,8.8-0.9
		c3.1-0.6,6-1.4,8.5-2.6l0.9,24.2c-3.6,1.3-7.5,2.3-11.8,3c-4.3,0.7-8.8,1.1-13.4,1.1c-14.1,0-24.8-3.9-32.3-11.6
		c-7.5-7.8-11.2-19.4-11.2-34.9v-80.9h-28.6v-24.2h28.6v-42.8h29.3v42.8H774V2179.7z"/>
	<path class="st4" d="M1025.8,2208c0-11.1-3.4-19.4-10.1-24.7c-6.7-5.3-15.6-8-26.8-8c-8.4,0-16.3,1.6-23.8,4.9
		c-7.5,3.3-13.7,7.4-18.7,12.4l-15.7-18.9c7.3-6.9,16.3-12.4,26.9-16.4c10.6-4,22-6,34.1-6c10.7,0,20,1.5,27.9,4.6
		c7.9,3,14.3,7.2,19.4,12.4c5,5.2,8.8,11.4,11.3,18.6c2.5,7.1,3.8,14.8,3.8,23v65.1c0,5,0.2,10.3,0.5,15.9
		c0.3,5.6,0.9,10.1,1.7,13.7h-26.8c-1.7-7.1-2.5-14.3-2.5-21.4h-0.9c-5.5,8-12.3,14.2-20.6,18.6c-8.3,4.4-18.1,6.6-29.4,6.6
		c-5.9,0-12-0.8-18.4-2.4c-6.4-1.6-12.2-4.1-17.5-7.7c-5.2-3.6-9.6-8.3-13.1-14.2c-3.5-5.9-5.2-13.1-5.2-21.7
		c0-11.3,3-20.3,9.1-26.9c6.1-6.6,14.1-11.6,23.9-15.1c9.9-3.5,21-5.7,33.4-6.8c12.4-1,24.9-1.6,37.5-1.6V2208z M1018.6,2233.5
		c-7.3,0-15,0.3-22.8,0.9c-7.9,0.6-15,1.9-21.4,3.8c-6.4,1.9-11.7,4.7-15.9,8.5c-4.2,3.8-6.3,8.8-6.3,15.1c0,4.4,0.9,8.1,2.7,11
		c1.8,2.9,4.1,5.3,7.1,7.2c2.9,1.9,6.2,3.2,9.8,3.9c3.6,0.7,7.2,1.1,11,1.1c13.8,0,24.5-4.1,31.9-12.4c7.4-8.3,11.2-18.7,11.2-31.3
		v-7.9H1018.6z"/>
	<path class="st4" d="M1301.8,2179.7h-39.7v77.5c0,9,1.7,15.4,5,19.3c3.4,3.9,8.7,5.8,16.1,5.8c2.7,0,5.7-0.3,8.8-0.9
		c3.1-0.6,6-1.4,8.5-2.6l0.9,24.2c-3.6,1.3-7.5,2.3-11.8,3c-4.3,0.7-8.8,1.1-13.4,1.1c-14.1,0-24.8-3.9-32.3-11.6
		c-7.5-7.8-11.2-19.4-11.2-34.9v-80.9h-28.6v-24.2h28.6v-42.8h29.3v42.8h39.7V2179.7z"/>
	<path class="st4" d="M1495.4,2101.7c0,5.5-1.9,10-5.8,13.5c-3.9,3.6-8.5,5.3-13.9,5.3c-5.4,0-10-1.8-13.7-5.5
		c-3.7-3.7-5.6-8.1-5.6-13.4c0-5.5,1.9-10,5.6-13.7c3.7-3.7,8.3-5.5,13.7-5.5c5.4,0,10,1.8,13.9,5.5
		C1493.5,2091.7,1495.4,2096.2,1495.4,2101.7z M1490.7,2304.7h-29.6v-149.2h29.6V2304.7z"/>
	<path class="st4" d="M1821.8,2229.8c0,11.5-2,22.1-6.1,31.8c-4.1,9.7-9.8,18-17,25c-7.2,7-15.8,12.5-25.7,16.4
		c-9.9,3.9-20.5,5.8-31.8,5.8c-11.3,0-21.9-1.9-31.8-5.8c-9.9-3.9-18.4-9.3-25.5-16.4c-7.1-7-12.8-15.4-16.8-25
		c-4.1-9.7-6.1-20.2-6.1-31.8c0-11.5,2-22.1,6.1-31.6c4.1-9.5,9.7-17.8,16.8-24.7c7.1-6.9,15.6-12.3,25.5-16.2
		c9.9-3.9,20.5-5.8,31.8-5.8c11.3,0,21.9,1.9,31.8,5.8c9.9,3.9,18.4,9.3,25.7,16.2c7.2,6.9,12.9,15.2,17,24.7
		C1819.8,2207.7,1821.8,2218.2,1821.8,2229.8z M1791,2229.9c0-7.1-1.1-13.9-3.3-20.4c-2.2-6.5-5.4-12.2-9.6-17.1
		c-4.2-4.9-9.4-8.8-15.6-11.8c-6.2-2.9-13.3-4.4-21.3-4.4c-8,0-15.1,1.5-21.3,4.4c-6.2,2.9-11.4,6.8-15.6,11.8
		c-4.2,4.9-7.4,10.6-9.6,17.1c-2.2,6.5-3.3,13.3-3.3,20.4c0,7.1,1.1,13.9,3.3,20.4c2.2,6.5,5.4,12.2,9.6,17.3c4.2,5,9.4,9,15.6,11.9
		c6.2,2.9,13.3,4.4,21.3,4.4c8,0,15.1-1.5,21.3-4.4c6.2-2.9,11.4-6.9,15.6-11.9c4.2-5,7.4-10.8,9.6-17.3
		C1789.9,2243.8,1791,2237,1791,2229.9z"/>
	<path class="st4" d="M2017.9,2155.5c0.4,3.8,0.7,8,0.9,12.7c0.2,4.7,0.3,8.7,0.3,11.8h0.9c1.9-4,4.5-7.7,7.7-11.2
		c3.2-3.5,7-6.5,11.2-9.1s8.8-4.7,13.9-6.1c5-1.5,10.3-2.2,15.7-2.2c9.6,0,17.9,1.6,24.9,4.9c6.9,3.3,12.7,7.6,17.3,13.1
		c4.6,5.5,8,11.9,10.2,19.2c2.2,7.3,3.3,15.2,3.3,23.6v92.5h-29.6v-82.8c0-6.1-0.5-11.9-1.4-17.3c-1-5.5-2.7-10.3-5.2-14.5
		c-2.5-4.2-6-7.6-10.4-10.1c-4.4-2.5-10.1-3.8-17-3.8c-11.8,0-21.4,4.5-28.8,13.4c-7.5,8.9-11.2,20.8-11.2,35.7v79.3h-29.6v-117.1
		c0-4-0.1-9.1-0.3-15.4c-0.2-6.3-0.5-11.8-0.9-16.7H2017.9z"/>
</g>
</svg>
